Coordinates
version=1
nRows=11
nColumns=63
inDegrees=yes

Units are S.I. units (second, meters, Newtons, ...)
If the header above contains a line with 'inDegrees', this indicates whether rotational values are in degrees (yes) or radians (no).

endheader
time	pelvis_tilt	pelvis_list	pelvis_rotation	pelvis_tx	pelvis_ty	pelvis_tz	hip_flexion_r	hip_adduction_r	hip_rotation_r	knee_angle_r	knee_angle_r_beta	ankle_angle_r	subtalar_angle_r	mtp_angle_r	hip_flexion_l	hip_adduction_l	hip_rotation_l	knee_angle_l	knee_angle_l_beta	ankle_angle_l	subtalar_angle_l	mtp_angle_l	L5_S1_Flex_Ext	L5_S1_Lat_Bending	L5_S1_axial_rotation	L4_L5_Flex_Ext	L4_L5_Lat_Bending	L4_L5_axial_rotation	L3_L4_Flex_Ext	L3_L4_Lat_Bending	L3_L4_axial_rotation	L2_L3_Flex_Ext	L2_L3_Lat_Bending	L2_L3_axial_rotation	L1_L2_Flex_Ext	L1_L2_Lat_Bending	L1_L2_axial_rotation	L1_T12_Flex_Ext	L1_T12_Lat_Bending	L1_T12_axial_rotation	Abs_r3	Abs_r2	Abs_r1	Abs_t1	Abs_t2	neck_flexion	neck_bending	neck_rotation	arm_flex_r	arm_add_r	arm_rot_r	elbow_flex_r	pro_sup_r	wrist_flex_r	wrist_dev_r	arm_flex_l	arm_add_l	arm_rot_l	elbow_flex_l	pro_sup_l	wrist_flex_l	wrist_dev_l
      4.05800000	    -58.43910003	     -3.35223447	     -4.86519471	     -0.25344183	      1.09173780	     -0.03135088	    119.02092473	     -5.94988615	     -6.31320671	    113.05639121	      1.97320627	     23.02937259	      4.43587441	      0.00000000	     95.04588506	     -9.76799113	      1.26670277	     50.51707148	      0.88168923	      4.36568558	      4.43194090	      0.00000000	     -0.09560673	      0.74502433	      0.44365991	     -0.17755126	      0.99088236	      0.47138865	     -0.15707230	      1.81145217	      0.47138865	     -0.10926893	      1.81145217	      0.38820242	     -0.08878041	      1.51925362	      0.36047368	     -0.05462969	      1.15404269	      0.33274493	     -0.68290933	      8.42786427	      2.46750332	      0.00000000	      0.00000000	      0.00000000	      0.00000000	      0.00000000	     63.84804313	    -14.50881774	     17.95567898	     47.17009024	     50.75942410	      0.00000000	      4.99991874	     54.45109796	    -17.62995558	      8.18899444	     54.98635371	     49.74240792	      0.00000000	      4.99991874
      4.06700000	    -58.52684760	     -3.03986468	     -4.99018774	     -0.25361353	      1.09243760	     -0.03094819	    120.37111576	     -5.88402013	     -6.38117829	    112.97307120	      1.97175206	     23.61312529	      4.37225444	      0.00000000	     93.98178143	    -10.22031854	      0.14641924	     50.14907869	      0.87526654	      4.24019115	      4.64297670	      0.00000000	     -0.09587436	      0.71614112	      0.45812952	     -0.17804828	      0.95246769	      0.48676261	     -0.15751199	      1.74122552	      0.48676261	     -0.10957481	      1.74122552	      0.40086333	     -0.08902893	      1.46035498	      0.37223023	     -0.05478261	      1.10930260	      0.34359714	     -0.68482098	      8.10113160	      2.54797893	      0.00000000	      0.00000000	      0.00000000	      0.00000000	      0.00000000	     63.93917598	    -14.49613888	     18.31845823	     47.27233231	     50.80336472	      0.00000000	      4.99992082	     54.51386091	    -17.79213896	      8.26204431	     54.96771085	     49.74899871	      0.00000000	      4.99992082
      4.07500000	    -58.63046404	     -3.05359619	     -4.98900332	     -0.25381866	      1.09316319	     -0.03109570	    121.54493475	     -6.03965738	     -6.62271346	    112.64125639	      1.96596080	     23.81284445	      4.34704051	      0.00000000	     93.20994039	    -10.32026994	      0.02924442	     50.23073983	      0.87669180	      4.14330832	      4.67576527	      0.00000000	     -0.09684999	      0.73314412	      0.45546319	     -0.17986011	      0.97508168	      0.48392964	     -0.15911484	      1.78256661	      0.48392964	     -0.11068985	      1.78256661	      0.39853029	     -0.08993490	      1.49502748	      0.37006384	     -0.05534008	      1.13564024	      0.34159739	     -0.69178977	      8.29347288	      2.53314964	      0.00000000	      0.00000000	      0.00000000	      0.00000000	      0.00000000	     64.07802049	    -14.47535587	     18.32565633	     47.36609677	     50.79762777	      0.00000000	      4.99992117	     54.51469737	    -17.80617122	      8.26274761	     54.92437402	     49.74315731	      0.00000000	      4.99992117
      4.08300000	    -58.78893340	     -2.94071511	     -5.11975079	     -0.25412084	      1.09422462	     -0.03063074	    122.56812574	     -5.87874773	     -6.80514103	    111.85367296	      1.95221487	     24.17386868	      4.19117747	      0.00000000	     92.55674062	    -10.82116096	     -0.90612874	     50.45365091	      0.88058233	      4.00278972	      5.25391122	      0.00000000	     -0.09597780	      0.72787215	      0.47374902	     -0.17824037	      0.96806996	      0.50335833	     -0.15768193	      1.76974835	      0.50335833	     -0.10969303	      1.76974835	      0.41453039	     -0.08912498	      1.48427689	      0.38492108	     -0.05484171	      1.12747396	      0.35531176	     -0.68555982	      8.23383535	      2.63484992	      0.00000000	      0.00000000	      0.00000000	      0.00000000	      0.00000000	     64.12359096	    -14.48947562	     18.57728822	     47.58170498	     50.82232869	      0.00000000	      4.99992237	     54.57244595	    -17.89748336	      8.19103785	     54.90332539	     49.73216006	      0.00000000	      4.99992237
      4.09200000	    -58.91511511	     -2.93052598	     -4.93689940	     -0.25441671	      1.09521390	     -0.03089503	    123.42601932	     -5.98697488	     -6.80568850	    110.87449505	      1.93512500	     24.24329379	      4.14466303	      0.00000000	     92.08109850	    -10.74801479	     -1.00839647	     51.03855812	      0.89079088	      4.05311942	      5.35889206	      0.00000000	     -0.09696381	      0.73460968	      0.44371384	     -0.18007149	      0.97703087	      0.47144595	     -0.15930184	      1.78612997	      0.47144595	     -0.11081994	      1.78612997	      0.38824961	     -0.09004059	      1.49801605	      0.36051749	     -0.05540512	      1.13791039	      0.33278538	     -0.69260280	      8.31005159	      2.46780324	      0.00000000	      0.00000000	      0.00000000	      0.00000000	      0.00000000	     64.20429837	    -14.52133592	     18.58992976	     47.68003718	     50.81656359	      0.00000000	      4.99992284	     54.65582990	    -17.89326980	      8.17054505	     54.87567032	     49.72326257	      0.00000000	      4.99992284
      4.10000000	    -59.03039936	     -2.87275245	     -4.82660369	     -0.25468512	      1.09595867	     -0.03088766	    124.12068280	     -5.91160149	     -6.75008791	    109.67079499	      1.91411647	     24.33562873	      3.96637476	      0.00000000	     91.94452139	    -10.81481773	     -1.13569919	     52.33853909	      0.91347983	      4.11028274	      5.77062814	      0.00000000	     -0.09532745	      0.73324989	      0.42170069	     -0.17703260	      0.97522236	      0.44805698	     -0.15661346	      1.78282379	      0.44805698	     -0.10894974	      1.78282379	      0.36898810	     -0.08852107	      1.49524318	      0.34263181	     -0.05447010	      1.13580409	      0.31627551	     -0.68091442	      8.29466945	      2.34537271	      0.00000000	      0.00000000	      0.00000000	      0.00000000	      0.00000000	     64.23284285	    -14.53764409	     18.68011474	     47.87059829	     50.81916491	      0.00000000	      4.99992370	     54.70961836	    -17.93458468	      8.08624183	     54.81488276	     49.70793681	      0.00000000	      4.99992370
      4.10800000	    -59.18945116	     -3.01436525	     -4.84814384	     -0.25507643	      1.09698428	     -0.03078142	    124.51109150	     -5.75464112	     -6.97833286	    108.01403861	      1.88520061	     24.24167976	      3.44421342	      0.00000000	     92.01703918	    -11.04238066	     -0.96748878	     53.80078647	      0.93900086	      4.39500726	      6.76611338	      0.00000000	     -0.09578117	      0.75425058	      0.43701903	     -0.17787521	      1.00315327	      0.46433272	     -0.15735889	      1.83388486	      0.46433272	     -0.10946830	      1.83388486	      0.38239166	     -0.08894240	      1.53806778	      0.35507797	     -0.05472936	      1.16833415	      0.32776428	     -0.68415533	      8.53223340	      2.43056877	      0.00000000	      0.00000000	      0.00000000	      0.00000000	      0.00000000	     64.31487941	    -14.71043727	     18.80814174	     48.03499215	     50.83257734	      0.00000000	      4.99992603	     54.78510418	    -17.81503918	      7.93923423	     54.82441934	     49.68457944	      0.00000000	      4.99992603
      4.11700000	    -59.30716119	     -2.99697432	     -4.32847296	     -0.25555698	      1.09784653	     -0.03144190	    124.80961590	     -5.94823723	     -6.65219950	    106.27616094	      1.85486892	     24.14115809	      3.29142132	      0.00000000	     92.17444313	    -10.57763689	     -0.76334981	     55.43505217	      0.96752418	      4.56960854	      6.78451467	      0.00000000	     -0.09635097	      0.75241822	      0.35015758	     -0.17893339	      1.00071623	      0.37204243	     -0.15829501	      1.82942965	      0.37204243	     -0.11011953	      1.82942965	      0.30638788	     -0.08947151	      1.53433123	      0.28450303	     -0.05505495	      1.16549582	      0.26261818	     -0.68822535	      8.51150535	      1.94747141	      0.00000000	      0.00000000	      0.00000000	      0.00000000	      0.00000000	     64.37719968	    -14.75058120	     18.80625934	     48.16818771	     50.81861704	      0.00000000	      4.99992687	     54.94330928	    -17.79455039	      7.85893426	     54.80563844	     49.66378373	      0.00000000	      4.99992687
      4.12500000	    -59.43072884	     -3.03903174	     -3.75731533	     -0.25614935	      1.09861162	     -0.03205796	    124.90553065	     -6.12253801	     -6.33399198	    104.29748621	      1.82033454	     23.98966001	      3.07774052	      0.00000000	     92.60360562	    -10.04532880	     -0.37565460	     57.45637823	      1.00280298	      4.66856094	      6.79781453	      0.00000000	     -0.09682713	      0.75347393	      0.25409552	     -0.17981766	      1.00212032	      0.26997648	     -0.15907729	      1.83199650	      0.26997648	     -0.11066373	      1.83199650	      0.22233358	     -0.08991367	      1.53648403	      0.20645261	     -0.05532702	      1.16713111	      0.19057164	     -0.69162650	      8.52344774	      1.41320303	      0.00000000	      0.00000000	      0.00000000	      0.00000000	      0.00000000	     64.46295953	    -14.80702709	     18.78101765	     48.29110966	     50.79885115	      0.00000000	      4.99992782	     55.10621773	    -17.75448759	      7.78048441	     54.81852886	     49.63993371	      0.00000000	      4.99992782
      4.13300000	    -59.59932997	     -3.63474561	     -3.31888129	     -0.25682762	      1.09944915	     -0.03298518	    124.60150835	     -6.47027413	     -6.68450755	    101.96460752	      1.77961812	     23.59442248	      2.17011595	      0.00000000	     93.45280343	     -9.59547814	      0.77721662	     59.85842571	      1.04472661	      4.56271393	      7.10261572	      0.00000000	     -0.09485626	      0.83212983	      0.19330412	     -0.17615757	      1.10673268	      0.20538562	     -0.15583936	      2.02324047	      0.20538562	     -0.10841122	      2.02324047	      0.16914110	     -0.08808353	      1.69687915	      0.15705959	     -0.05420087	      1.28896911	      0.14497809	     -0.67754881	      9.41321907	      1.07509951	      0.00000000	      0.00000000	      0.00000000	      0.00000000	      0.00000000	     64.75116615	    -15.08475530	     19.09512561	     48.29189754	     50.82831581	      0.00000000	      4.99993115	     55.09252576	    -17.41614358	      7.34274980	     54.90411428	     49.57699825	      0.00000000	      4.99993115
      4.14200000	    -59.68853796	     -3.66844797	     -2.45725371	     -0.25762734	      1.10006491	     -0.03393543	    124.30873742	     -6.80199185	     -6.11066765	     99.62508844	      1.73878581	     23.30907220	      2.04318020	      0.00000000	     94.18690418	     -8.74333252	      1.18785612	     62.29409313	      1.08723703	      4.71567340	      7.02330943	      0.00000000	     -0.09535050	      0.82934015	      0.04894931	     -0.17707542	      1.10302240	      0.05200864	     -0.15665134	      2.01645765	      0.05200864	     -0.10897609	      2.01645765	      0.04283065	     -0.08854248	      1.69119044	      0.03977132	     -0.05448328	      1.28464790	      0.03671198	     -0.68107910	      9.38166167	      0.27224139	      0.00000000	      0.00000000	      0.00000000	      0.00000000	      0.00000000	     64.84781136	    -15.11053571	     19.06389937	     48.37742922	     50.80244541	      0.00000000	      4.99993235	     55.28679361	    -17.39668459	      7.31510400	     54.94171668	     49.55331231	      0.00000000	      4.99993235
